<?xml version="1.0" encoding="UTF-8" standalone="no"?>
<!DOCTYPE svg PUBLIC "-//W3C//DTD SVG 1.1//EN" "http://www.w3.org/Graphics/SVG/1.1/DTD/svg11.dtd">
<svg width="100%" height="100%" viewBox="0 0 100 100" version="1.1" xmlns="http://www.w3.org/2000/svg" xmlns:xlink="http://www.w3.org/1999/xlink" xml:space="preserve" xmlns:serif="http://www.serif.com/" style="fill-rule:evenodd;clip-rule:evenodd;stroke-linejoin:round;stroke-miterlimit:2;">
    <g transform="matrix(1.09957,0,0,1,-4.9787,0)">
        <path d="M29.569,42.507L30.959,37.501L69.041,37.501L70.431,42.507L29.569,42.507Z" style="fill:rgb(255,251,0);"/>
        <path d="M28.178,47.514L29.569,42.507L70.431,42.507L71.822,47.514L28.178,47.514Z" style="fill:rgb(187,176,0);"/>
    </g>
    <g>
        <path d="M2.52,100L37.533,0L39.987,5.007L14.987,94.994L2.52,100Z" style="fill:rgb(255,251,0);"/>
        <path d="M37.533,0L2.52,100L0,89.954L30.04,5.007L37.533,0Z" style="fill:rgb(187,176,0);"/>
    </g>
    <g transform="matrix(-1,0,0,1,100,0)">
        <path d="M2.52,100L37.539,0L39.987,5.007L14.987,94.994L2.52,100Z" style="fill:rgb(187,176,0);"/>
        <path d="M37.539,0L2.52,100L0,89.954L29.973,5.007L37.539,0Z" style="fill:rgb(255,251,0);"/>
    </g>
</svg>
