<?xml version="1.0" encoding="UTF-8" standalone="no"?>
<!DOCTYPE svg PUBLIC "-//W3C//DTD SVG 1.1//EN" "http://www.w3.org/Graphics/SVG/1.1/DTD/svg11.dtd">
<svg width="100%" height="100%" viewBox="0 0 346 36" version="1.1" xmlns="http://www.w3.org/2000/svg" xmlns:xlink="http://www.w3.org/1999/xlink" xml:space="preserve" xmlns:serif="http://www.serif.com/" style="fill-rule:evenodd;clip-rule:evenodd;stroke-linejoin:round;stroke-miterlimit:2;">
    <path d="M64.4,35.5C64.1,35.5 63.8,35.4 63.6,35.2C63.4,35 63.3,34.7 63.3,34.3L63.3,1.7C63.3,1.3 63.4,1 63.6,0.8C63.8,0.6 64.1,0.5 64.4,0.5L68.9,0.5C69.3,0.5 69.6,0.6 69.8,0.8C70,1 70.1,1.3 70.1,1.7L70.1,14.6L84.8,14.6L84.8,1.7C84.8,1.3 84.9,1 85.2,0.8C85.4,0.6 85.7,0.5 86,0.5L90.5,0.5C90.9,0.5 91.2,0.6 91.4,0.8C91.6,1 91.7,1.3 91.7,1.7L91.7,34.2C91.7,34.5 91.6,34.8 91.4,35.1C91.2,35.3 90.9,35.4 90.5,35.4L86,35.4C85.7,35.4 85.4,35.3 85.2,35.1C85,34.9 84.8,34.6 84.8,34.2L84.8,20.9L70.1,20.9L70.1,34.3C70.1,34.6 70,34.9 69.8,35.2C69.6,35.4 69.3,35.5 68.9,35.5L64.4,35.5ZM105.3,35.5C105,35.5 104.7,35.4 104.5,35.2C104.3,35 104.2,34.7 104.2,34.3L104.2,1.7C104.2,1.3 104.3,1 104.5,0.8C104.7,0.6 105,0.5 105.3,0.5L127.3,0.5C127.7,0.5 128,0.6 128.2,0.8C128.4,1 128.5,1.3 128.5,1.7L128.5,5C128.5,5.3 128.4,5.6 128.2,5.9C128,6.1 127.7,6.2 127.3,6.2L110.9,6.2L110.9,15L126.2,15C126.6,15 126.9,15.1 127.1,15.3C127.3,15.5 127.4,15.8 127.4,16.2L127.4,19.3C127.4,19.7 127.3,20 127.1,20.2C126.9,20.4 126.6,20.5 126.2,20.5L110.9,20.5L110.9,29.6L127.7,29.6C128.1,29.6 128.4,29.7 128.6,29.9C128.8,30.1 128.9,30.4 128.9,30.8L128.9,34.1C128.9,34.4 128.8,34.7 128.6,35C128.4,35.2 128.1,35.3 127.7,35.3L105.3,35.3L105.3,35.5ZM140.9,35.5C140.6,35.5 140.3,35.4 140.1,35.2C139.9,35 139.8,34.7 139.8,34.3L139.8,1.7C139.8,1.3 139.9,1 140.1,0.8C140.3,0.6 140.6,0.5 140.9,0.5L153.8,0.5C157.8,0.5 161,1.4 163.3,3.3C165.6,5.2 166.8,7.9 166.8,11.4C166.8,13.9 166.2,15.9 165,17.5C163.8,19.1 162.2,20.3 160.1,21L167.4,33.7C167.5,33.9 167.5,34.1 167.5,34.2C167.5,34.5 167.4,34.7 167.2,34.9C167,35.1 166.7,35.2 166.5,35.2L162,35.2C161.4,35.2 161,35 160.7,34.8C160.4,34.5 160.2,34.2 160,33.9L153.6,22.1L146.7,22.1L146.7,34.1C146.7,34.4 146.6,34.7 146.4,35C146.2,35.2 145.9,35.3 145.5,35.3L140.9,35.3L140.9,35.5ZM146.5,16.6L153.6,16.6C155.6,16.6 157.1,16.1 158.1,15.2C159.1,14.3 159.6,13 159.6,11.3C159.6,9.6 159.1,8.3 158.1,7.4C157.1,6.5 155.6,6 153.5,6L146.5,6L146.5,16.6ZM179.1,35.5C178.7,35.5 178.4,35.4 178.2,35.2C178,35 177.9,34.7 177.9,34.3L177.9,1.7C177.9,1.3 178,1 178.2,0.8C178.4,0.6 178.7,0.5 179.1,0.5L183,0.5C183.5,0.5 183.8,0.6 184.1,0.9C184.3,1.1 184.5,1.3 184.5,1.5L194.1,19.5L203.8,1.5C203.9,1.4 204,1.2 204.2,0.9C204.4,0.7 204.8,0.5 205.2,0.5L209.1,0.5C209.5,0.5 209.8,0.6 210,0.8C210.2,1 210.4,1.3 210.4,1.7L210.4,34.2C210.4,34.5 210.3,34.8 210,35.1C209.8,35.3 209.5,35.4 209.1,35.4L204.9,35.4C204.5,35.4 204.2,35.3 204,35.1C203.8,34.9 203.7,34.6 203.7,34.2L203.7,12.6L196.7,25.9C196.5,26.2 196.3,26.5 196,26.7C195.7,26.9 195.4,27 195,27L193,27C192.5,27 192.2,26.9 191.9,26.7C191.6,26.5 191.4,26.2 191.3,25.9L184.3,12.6L184.3,34.2C184.3,34.5 184.2,34.8 184,35.1C183.8,35.3 183.5,35.4 183.1,35.4L179.1,35.4L179.1,35.5ZM224.1,35.5C223.8,35.5 223.5,35.4 223.3,35.2C223.1,35 223,34.7 223,34.3L223,1.7C223,1.3 223.1,1 223.3,0.8C223.5,0.6 223.8,0.5 224.1,0.5L246.1,0.5C246.5,0.5 246.8,0.6 247,0.8C247.2,1 247.3,1.3 247.3,1.7L247.3,5C247.3,5.3 247.2,5.6 247,5.9C246.8,6.1 246.5,6.2 246.1,6.2L229.7,6.2L229.7,15L245,15C245.4,15 245.7,15.1 245.9,15.3C246.1,15.5 246.2,15.8 246.2,16.2L246.2,19.3C246.2,19.7 246.1,20 245.9,20.2C245.7,20.4 245.4,20.5 245,20.5L229.7,20.5L229.7,29.6L246.5,29.6C246.9,29.6 247.2,29.7 247.4,29.9C247.6,30.1 247.7,30.4 247.7,30.8L247.7,34.1C247.7,34.4 247.6,34.7 247.4,35C247.2,35.2 246.9,35.3 246.5,35.3L224.1,35.3L224.1,35.5ZM270.6,36C267.5,36 264.9,35.5 262.8,34.6C260.7,33.7 259.1,32.5 258.1,31C257,29.5 256.4,28 256.4,26.3C256.4,26 256.5,25.8 256.7,25.6C256.9,25.4 257.1,25.3 257.4,25.3L261.8,25.3C262.2,25.3 262.6,25.4 262.8,25.6C263,25.8 263.2,26 263.4,26.3C263.6,26.9 264,27.6 264.5,28.2C265.1,28.8 265.8,29.3 266.8,29.7C267.8,30.1 269,30.3 270.5,30.3C272.9,30.3 274.7,29.9 275.9,29.1C277.1,28.3 277.7,27.2 277.7,25.9C277.7,24.9 277.4,24.2 276.8,23.6C276.2,23 275.2,22.5 273.9,22C272.6,21.5 270.8,21 268.7,20.5C266.2,19.9 264.1,19.2 262.4,18.3C260.7,17.5 259.5,16.4 258.6,15.1C257.7,13.8 257.3,12.2 257.3,10.2C257.3,8.3 257.8,6.6 258.9,5.1C259.9,3.6 261.4,2.4 263.4,1.6C265.3,0.7 267.7,0.3 270.4,0.3C272.6,0.3 274.5,0.6 276.1,1.2C277.8,1.8 279.1,2.5 280.2,3.5C281.3,4.4 282.1,5.5 282.7,6.5C283.3,7.6 283.6,8.6 283.6,9.7C283.6,10 283.5,10.2 283.3,10.4C283.1,10.6 282.9,10.7 282.5,10.7L278,10.7C277.7,10.7 277.5,10.6 277.2,10.5C276.9,10.4 276.7,10.1 276.5,9.8C276.3,8.8 275.7,7.9 274.6,7.2C273.5,6.5 272.1,6.1 270.4,6.1C268.6,6.1 267.2,6.4 266.1,7.1C265,7.8 264.5,8.8 264.5,10.2C264.5,11.1 264.8,11.9 265.3,12.5C265.8,13.1 266.7,13.7 267.9,14.1C269.1,14.6 270.7,15.1 272.7,15.6C275.5,16.2 277.8,17 279.6,17.8C281.4,18.6 282.7,19.7 283.5,21C284.3,22.3 284.7,23.9 284.7,25.9C284.7,28.1 284.1,30 282.9,31.5C281.7,33 280.1,34.2 277.9,35.1C275.9,35.6 273.4,36 270.6,36Z" style="fill:white;fill-rule:nonzero;"/>
    <g>
        <path d="M50,11.6L11,11.6C4.9,11.6 0,6.7 0,0.6L50,0.6L50,11.6ZM50,23.5L22,23.5C15.9,23.5 11,18.6 11,12.5L50,12.5L50,23.5ZM50,35.3L33,35.3C26.9,35.3 22,30.4 22,24.3L50,24.3L50,35.3Z" style="fill:rgb(156,145,13);fill-rule:nonzero;"/>
    </g>
    <g>
        <path d="M295.9,11.6L334.9,11.6C341,11.6 345.9,6.7 345.9,0.6L295.9,0.6L295.9,11.6ZM295.9,23.5L323.9,23.5C330,23.5 334.9,18.6 334.9,12.5L295.9,12.5L295.9,23.5ZM295.9,35.3L312.9,35.3C319,35.3 323.9,30.4 323.9,24.3L295.9,24.3L295.9,35.3Z" style="fill:rgb(156,145,13);fill-rule:nonzero;"/>
    </g>
</svg>
