<?xml version="1.0" encoding="UTF-8" standalone="no"?>
<!DOCTYPE svg PUBLIC "-//W3C//DTD SVG 1.1//EN" "http://www.w3.org/Graphics/SVG/1.1/DTD/svg11.dtd">
<svg width="100%" height="100%" viewBox="0 0 565 145" version="1.1" xmlns="http://www.w3.org/2000/svg" xmlns:xlink="http://www.w3.org/1999/xlink" xml:space="preserve" xmlns:serif="http://www.serif.com/" style="fill-rule:evenodd;clip-rule:evenodd;stroke-linecap:round;stroke-linejoin:round;stroke-miterlimit:1.5;">
    <g transform="matrix(2.24678,0,0,2.24678,-35.7976,-50.3554)">
        <circle cx="57.391" cy="54.638" r="30" style="fill:none;stroke:rgb(220,128,0);stroke-width:4.45px;"/>
    </g>
    <g transform="matrix(8.30703,0,0,8.30703,-521.365,-595.452)">
        <text x="86.522px" y="86.377px" style="font-family:'Komrade-Regular', 'Komrade';font-size:16.612px;fill:rgb(220,128,0);">TIDDALIK</text>
    </g>
    <g transform="matrix(1.96711,-0.52338,0.52338,1.96711,-37.6796,-12.448)">
        <path d="M43.173,66.68C20.236,66.213 4.985,62.457 4.985,58.231C4.985,53.688 25.61,50 51.014,50C76.418,50 97.043,53.688 97.043,58.231C97.043,62.21 83.37,65.367 62.371,66.13" style="fill:none;stroke:rgb(220,128,0);stroke-width:2.46px;stroke-dasharray:1.23,4.91,0,0;"/>
    </g>
    <g transform="matrix(2.88226,0,0,2.88226,-165.23,-37.8139)">
        <circle cx="92.357" cy="44.314" r="5.035" style="fill:none;stroke:rgb(220,128,0);stroke-width:1.04px;"/>
    </g>
</svg>
