<?xml version="1.0" standalone="no"?>
<!DOCTYPE svg PUBLIC "-//W3C//DTD SVG 20010904//EN"
 "http://www.w3.org/TR/2001/REC-SVG-20010904/DTD/svg10.dtd">
<svg version="1.0" xmlns="http://www.w3.org/2000/svg"
 width="900.000000pt" height="900.000000pt" viewBox="0 0 900.000000 900.000000"
 preserveAspectRatio="xMidYMid meet">
<metadata>
Created by potrace 1.14, written by Peter Selinger 2001-2017
</metadata>
<g transform="translate(0.000000,900.000000) scale(0.100000,-0.100000)"
fill="#000000" stroke="none">
<path d="M4375 8940 c-66 -32 -163 -78 -215 -103 -52 -24 -140 -66 -195 -92
-158 -75 -258 -121 -430 -200 -88 -40 -194 -89 -235 -108 -41 -19 -103 -47
-138 -61 -34 -15 -93 -40 -130 -57 -248 -114 -672 -284 -877 -351 -178 -58
-523 -154 -735 -203 -8 -2 -85 -20 -170 -40 -85 -19 -171 -40 -190 -45 -19 -6
-134 -31 -255 -56 -239 -50 -483 -101 -528 -111 -26 -5 -28 -9 -23 -37 5 -27
54 -334 71 -451 4 -22 8 -51 10 -65 2 -14 7 -47 10 -75 4 -27 8 -57 10 -65 4
-12 44 -247 71 -409 3 -18 8 -43 10 -55 11 -57 16 -83 18 -106 3 -21 17 -100
71 -405 3 -16 14 -73 25 -125 10 -52 24 -122 30 -155 5 -33 12 -71 15 -85 3
-14 8 -38 10 -55 12 -67 38 -201 77 -390 22 -110 42 -209 44 -220 2 -11 10
-49 18 -85 8 -36 28 -130 45 -210 18 -80 48 -212 67 -295 20 -82 37 -157 39
-165 37 -171 139 -564 212 -815 86 -297 87 -300 148 -480 98 -289 205 -546
277 -668 15 -26 28 -50 28 -53 0 -11 105 -160 157 -223 69 -83 286 -295 378
-370 38 -31 79 -64 90 -74 43 -39 257 -199 395 -294 141 -98 474 -313 484
-313 3 0 25 -13 49 -30 25 -16 49 -30 55 -30 6 0 12 -4 14 -8 2 -5 28 -22 58
-39 68 -39 88 -50 280 -158 85 -48 164 -91 175 -96 11 -5 67 -34 125 -65 58
-31 222 -114 365 -185 143 -71 271 -135 285 -143 19 -9 32 -10 50 -2 78 32
776 384 805 406 6 4 48 27 95 52 472 249 1089 653 1450 949 108 89 336 308
401 386 139 167 253 371 364 653 83 211 237 692 314 980 46 173 83 316 86 331
2 9 8 33 14 55 12 41 70 284 106 444 25 109 67 302 71 325 3 17 7 37 10 45 3
8 14 58 24 110 11 52 37 183 59 290 40 201 66 333 75 385 3 17 12 66 21 110
98 519 103 546 111 595 2 19 7 46 10 60 2 14 7 39 9 55 8 51 15 89 20 115 3
14 21 120 40 235 19 116 37 221 39 235 3 14 7 43 11 65 3 22 14 96 26 165 11
69 22 143 24 165 3 22 7 51 10 65 3 14 7 39 9 55 3 17 10 59 15 94 6 36 9 66
7 68 -1 1 -103 23 -227 49 -123 25 -233 47 -244 50 -19 4 -33 7 -95 19 -58 11
-403 88 -495 110 -237 57 -435 106 -505 126 -41 11 -79 22 -85 23 -122 32
-349 106 -515 169 -138 53 -603 247 -638 267 -10 6 -57 27 -107 49 -49 21
-124 55 -165 74 -41 19 -100 46 -130 60 -166 75 -466 218 -849 403 -106 52
-194 94 -195 94 0 -1 -55 -27 -121 -60z"/>
</g>
</svg>
